<?xml version="1.0" encoding="UTF-8"?>
<svg id="Ebene_1" xmlns="http://www.w3.org/2000/svg" xmlns:xlink="http://www.w3.org/1999/xlink" version="1.1" viewBox="0 0 100 86.06">
  <!-- Generator: Adobe Illustrator 29.5.1, SVG Export Plug-In . SVG Version: 2.1.0 Build 141)  -->
  <defs>
    <style>
      .st0 {
        fill: url(#Unbenannter_Verlauf_8);
      }

      .st1 {
        fill: url(#Unbenannter_Verlauf_83);
      }

      .st2 {
        fill: url(#Unbenannter_Verlauf_81);
      }

      .st3 {
        fill: url(#Unbenannter_Verlauf_82);
      }
    </style>
    <linearGradient id="Unbenannter_Verlauf_8" data-name="Unbenannter Verlauf 8" x1="-175.65" y1="24.34" x2="394.4" y2="81.06" gradientTransform="translate(0 87.22) scale(1 -1)" gradientUnits="userSpaceOnUse">
      <stop offset="0" stop-color="#37368a"/>
      <stop offset=".06" stop-color="#443a8e"/>
      <stop offset=".24" stop-color="#674a98"/>
      <stop offset=".42" stop-color="#80579f"/>
      <stop offset=".61" stop-color="#9460a4"/>
      <stop offset=".8" stop-color="#9f65a7"/>
      <stop offset="1" stop-color="#a467a8"/>
    </linearGradient>
    <linearGradient id="Unbenannter_Verlauf_81" data-name="Unbenannter Verlauf 8" x1="-174.78" y1="15.58" x2="395.27" y2="72.31" xlink:href="#Unbenannter_Verlauf_8"/>
    <linearGradient id="Unbenannter_Verlauf_82" data-name="Unbenannter Verlauf 8" x1="-175.01" y1="17.89" x2="395.05" y2="74.61" xlink:href="#Unbenannter_Verlauf_8"/>
    <linearGradient id="Unbenannter_Verlauf_83" data-name="Unbenannter Verlauf 8" x1="-173.61" y1="3.85" x2="396.44" y2="60.57" xlink:href="#Unbenannter_Verlauf_8"/>
  </defs>
  <polygon class="st0" points="43.43 25.89 52.27 3.03 51.4 .6 31.68 .6 1.3 85.16 19.09 85.16 24.65 69.06 29.25 55.51 29.35 55.51 30.08 53.15 41.48 20.19 43.43 25.89"/>
  <polygon class="st2" points="46.27 34.11 63.85 85.16 81.76 85.16 54.67 9.75 46.27 34.11"/>
  <rect class="st3" x="81.76" y=".72" width="16.94" height="84.44"/>
  <path class="st1" d="M41.54,55.51c-3.55,0-6.45,2.88-6.45,6.45s2.88,6.45,6.45,6.45,6.45-2.88,6.45-6.45-2.88-6.45-6.45-6.45Z"/>
</svg>